<svg xmlns="http://www.w3.org/2000/svg"><symbol id="gulp-logo" viewBox="2478 -2477.4 1452.6 884.2"><style>.st0{fill:#FFF;stroke:#FFF;stroke-width:13.3857;stroke-miterlimit:10}</style><path class="st0" d="M2865.2-2024.5c-1 1.5-2.8 6.1-5.4 13.9s-5.8 17.6-9.5 29.4c-3.7 11.8-7.8 25-12.1 39.6-4.4 14.6-8.9 29.5-13.4 44.7-4.6 15.2-9 30.1-13.3 44.7-4.2 14.6-8.1 27.8-11.4 39.6-3.3 11.8-6.1 21.7-8.4 29.7-2.2 8-3.6 12.7-4.1 14.2-1.2 4.7-3.2 10-6 15.7s-6 11.2-9.7 16.4c-3.7 5.2-7.8 9.4-12.3 12.8-4.5 3.4-9.1 5.1-13.8 5.1-8 0-13.8-2.7-17.4-8-3.6-5.3-5.4-15-5.4-29.2v-6.2c0-2.1.1-4.3.4-6.6.3-4.7 2.1-13.6 5.6-26.6 3.5-13 7.7-27.6 12.5-44s10.1-33.3 15.7-50.9c5.6-17.5 10.6-33.3 15.1-47.1-13.2 14.7-27.5 29.4-43 44a473.33 473.33 0 0 1-47.4 39.4c-16.2 11.7-32.5 21.2-48.9 28.5-16.4 7.4-32.2 11.1-47.4 11.1-17.4 0-32.4-3.9-45-11.5-12.6-7.7-23-17.7-31.2-30.1s-14.3-26.4-18.3-42c-4-15.6-6-31.3-6-46.9v-5.8c0-1.8.1-3.5.4-5.3 1.5-28.3 5.6-57.4 12.1-87.2 6.6-29.8 15.3-59.4 26-88.9 10.7-29.5 23.1-58.3 37.2-86.5s29.4-54.8 45.9-79.8c16.6-25 34.1-48.1 52.8-69.2 18.7-21.1 37.8-39.2 57.5-54.4 19.7-15.2 39.5-27 59.6-35.6 20-8.6 39.9-12.8 59.6-12.8 22.7 0 44.6 6.2 65.7 18.6 21.1 12.4 40.9 32.5 59.4 60.2 4.2 6.2 6.9 12.5 8 18.8 1.1 6.4 1.7 12.3 1.7 17.9 0 13.3-3.2 23.7-9.5 31.4-6.4 7.7-13.9 11.5-22.6 11.5-8 0-15.4-4.2-22.2-12.6-6.9-8.4-14.5-20.4-23-36.1-8-14.2-16.7-24.4-26.3-30.8s-20-9.5-31.2-9.5c-17.4 0-36.1 7.2-55.8 21.7-19.8 14.4-39.4 33.6-58.8 57.3-19.4 23.7-38 50.8-55.8 81.4-17.8 30.5-33.6 61.8-47.2 93.8-13.7 32-24.6 63.6-32.7 94.7-8.1 31.1-12.1 59.1-12.1 83.8 0 8.3.6 16.7 1.7 25.4s3.2 16.6 6.4 23.7c3.1 7.1 7.3 12.9 12.7 17.5 5.3 4.6 12.1 6.9 20.3 6.9 9.2 0 19.7-3.1 31.4-9.3 11.7-6.2 23.9-14.3 36.4-24.3 12.6-10 25.2-21.4 37.9-34.1 12.7-12.7 24.5-25.5 35.5-38.5 10.9-13 20.7-25.4 29.1-37.4 8.5-11.9 14.8-22.3 19-31.2l34.7-103.9c4.2-11.2 9.8-19.2 16.6-23.9 6.9-4.7 13.9-7.1 21.1-7.1 3.5 0 6.9.6 10.5 1.8 3.5 1.2 6.6 3 9.3 5.6 2.8 2.5 4.9 5.8 6.5 9.7 1.6 4 2.4 8.6 2.4 13.9 0 14.2-1.2 27.4-3.7 39.8s-5.7 24.5-9.5 36.3c-3.9 11.8-8.1 23.7-12.9 35.6-5 11.7-9.6 24.2-14 37.2zM3336.1-1937.8c-11 14.7-23.7 29.1-38.3 43.1-14.6 14-29.6 26.5-45 37.4-15.4 10.9-30.6 19.7-45.5 26.3-15 6.7-28.4 10-40.3 10s-21.7-4-29.1-11.9c-7.5-8-11.2-21.5-11.2-40.7 0-13.6 2-29.4 6-47.3-6.5 11.5-14.6 23.2-24.3 35s-20.8 22.5-33.3 32.3c-12.5 9.7-26.4 17.6-41.8 23.6-15.4 6.1-32.2 9.1-50.4 9.1-8.2 0-16.1-1-23.7-3.1-7.6-2.1-14.2-5.6-20-10.6-5.7-5-10.3-11.7-13.8-20.1-3.5-8.4-5.2-18.9-5.2-31.6 0-.3.5-4.8 1.5-13.5s4.2-22.4 9.5-41.1c5.3-18.7 13.6-43 24.8-72.7 11.2-29.8 27-65.9 47.4-108.4 5.2-11.2 11.3-19.2 18.1-24.1 6.9-4.9 14.2-7.3 22.2-7.3 3.5 0 7.1.5 10.8 1.5 3.7 1.1 7.2 2.7 10.5 4.9 3.2 2.2 5.8 5 7.8 8.4 2 3.4 3 7.3 3 11.7 0 3-.4 5.8-1.1 8.4-1.2 5-3.9 11.6-8.1 19.7-4.1 8.1-8.9 17.4-14.4 27.9s-11.3 21.7-17.4 33.9c-6.1 12.1-11.8 24.6-17 37.6-5.2 13-9.7 26.2-13.4 39.6-3.7 13.4-5.8 26.5-6.4 39.1 0 5.3 1.2 10.2 3.7 14.6s6.6 6.7 12.3 6.7c16.2 0 31.6-5.3 46.3-15.9 14.7-10.6 28.3-23.8 40.7-39.6 12.5-15.8 23.7-32.7 33.8-50.9 10.1-18.1 18.5-34.7 25.2-49.7 4.7-10 8.9-20.8 12.5-32.3s7.5-22.1 11.8-31.9c4.2-9.7 9.1-17.8 14.6-24.3s12.3-9.7 20.5-9.7c8.9 0 16.1 3.4 21.3 10.2s7.8 14.9 7.8 24.3c0 5.3-1.7 12.6-5 21.9-3.4 9.3-7.6 19.9-12.7 31.9-5.1 11.9-10.6 24.7-16.6 38.3-6 13.6-11.5 27.4-16.6 41.4-5.1 14-9.3 27.7-12.7 41.1-3.3 13.4-5 25.9-5 37.4 0 10.6 5.5 15.9 16.4 15.9 7.7 0 17.3-2.7 28.8-8s23.5-12.8 36.1-22.3c12.6-9.6 25.1-20.8 37.7-33.9 12.6-13 23.7-27 33.4-42l3.8 59.7z"/><path class="st0" d="M3347.7-1959.9c-2.8 6.8-5.4 14.7-8.1 23.7-2.6 9-3.9 17-3.9 24.1 0 4.4.8 8 2.2 10.6 1.5 2.7 4.4 4 8.6 4 5.2 0 11.7-1.8 19.6-5.6 7.8-3.7 16.3-8.6 25.4-14.6 9.1-6 18.6-13 28.4-20.8 9.8-7.8 19.6-15.9 29.3-24.3s19-16.8 27.8-25.2c8.9-8.4 16.7-16.1 23.7-23.2 2-2.1 4.4-3.6 7.1-4.4 2.7-.9 5.1-1.3 7.1-1.3 5 0 9.1 2.1 12.3 6.2 3.2 4.1 4.8 9.6 4.8 16.4 0 6.2-1.7 13.1-5.2 20.8-3.5 7.7-9.6 15.2-18.3 22.5-15.9 17.4-32 33.9-48.2 49.5s-32.3 29.4-48.3 41.4c-16.1 11.9-32 21.4-47.8 28.6-15.8 7.1-31.2 10.6-46.1 10.6-10.2 0-18.7-1.6-25.6-4.9s-12.3-7.7-16.4-13.3c-4.1-5.6-7-12.2-8.8-19.9-1.7-7.7-2.6-15.8-2.6-24.3 0-14.4 1.8-29.3 5.4-44.4 3.6-15.2 7.9-29.1 12.9-41.8 8.7-23 17.5-45.8 26.5-68.6 8.9-22.7 17.2-43.5 24.7-62.4l113.1-285.3c4.5-11.5 10.5-19.6 18.1-24.3 7.6-4.7 15.3-7.1 23-7.1s14.7 2.5 21.1 7.5c6.4 5 9.5 13.1 9.5 24.3 0 5.3-1.1 10.9-3.2 16.8s-4.8 12.2-8 19c-6.2 13.9-13.6 30.8-22.2 50.8-8.6 20-17.8 41.9-27.6 65.5s-19.9 48.1-30.3 73.6-20.4 50.3-30.3 74.5c-9.8 24.2-19 47.1-27.6 68.8-8.5 21.7-15.9 40.5-22.1 56.5z"/><path class="st0" d="M3876.8-2040c3.5-2.4 6.7-4.3 9.7-5.8s5.8-2.2 8.6-2.2c5.5 0 9.6 2.5 12.3 7.3 2.8 4.9 4.1 10.8 4.1 17.9 0 7.7-1.7 15.5-5 23.4-3.3 8-8.4 14.6-15.1 19.9-26.6 23.6-50.4 45.1-71.3 64.6-20.9 19.4-40.6 36.2-59.2 50.2s-36.6 24.8-54.3 32.5c-17.7 7.7-36.6 11.5-56.8 11.5-18.9 0-33.6-4.2-43.9-12.4-10.3-8.3-15.5-19.6-15.5-34.1v-3.3c0-1 .1-2.3.4-3.8 1-8.9 4.9-19 11.6-30.5 6.7-11.5 14.8-23.4 24.3-35.8s19.5-24.9 30.3-37.6 20.6-24.7 29.7-36.1c9.1-11.4 16.6-21.7 22.6-31.2 6-9.4 9-17.1 9-23 0-3.6-1.3-6.4-3.7-8.4-2.5-2.1-6.6-3.1-12.3-3.1-10 0-20.2 2.6-30.8 7.8s-21.1 12.1-31.4 20.8c-10.3 8.7-20.4 18.6-30.3 29.9s-19 22.8-27.6 35-16.4 24.2-23.5 36.5c-7.1 12.2-13.1 23.5-18.1 33.9-1.5 3.3-3.6 7.8-6.4 13.7-2.8 5.9-5.7 12.5-8.9 19.9-3.3 7.4-6.7 15-10.3 22.8-3.6 7.8-6.9 15.2-9.9 22.1-3 6.9-5.7 13.1-8.1 18.6-2.4 5.5-4.1 9.2-5 11.3-1.3 2.7-3.3 7.7-6.2 15-2.9 7.4-6.1 16-9.9 25.9-3.7 9.9-7.7 20.3-11.7 31.2-4.1 10.9-8 21.2-11.6 31-3.6 9.7-6.8 18.3-9.5 25.6-2.8 7.4-4.5 12.4-5.3 15-2.5 7.7-5.4 14.9-8.8 21.7-3.3 6.8-7.2 12.8-11.6 17.9s-9.3 9.3-15 12.4c-5.6 3.1-11.9 4.6-18.9 4.6-9 0-16.4-2.2-22.2-6.4-5.8-4.3-8.8-12.5-8.8-24.5 0-5.9.8-11.9 2.2-18.1 1.5-6.2 3.4-12.3 5.6-18.3 2.2-6.1 4.5-11.9 6.9-17.7 2.4-5.8 4.5-11.3 6.5-16.6 13.4-29.5 27.2-59.1 41.1-88.7 13.9-29.7 27.3-59 40.1-88s24.7-57.6 35.7-85.6c10.9-28 20-54.9 27.2-80.5 2-5.3 4.7-12.8 8.2-22.6 3.5-9.7 7.5-19.3 11.9-28.8 4.5-9.4 9.5-17.6 15.1-24.5 5.6-6.9 11.7-10.4 18.1-10.4 10 0 17.2 2.3 21.7 6.9s6.7 11.3 6.7 20.1c0 1.8-.3 4.6-.8 8.4-.5 3.8-1.1 7.9-1.9 12.2-.8 4.3-1.6 8.3-2.4 12.2-.9 3.8-1.7 6.6-2.4 8.4 9.2-10 19.2-20 29.9-29.9 10.7-9.9 21.8-18.8 33.3-26.8 11.4-8 23.1-14.4 35.1-19.5 11.9-5 23.9-7.5 35.8-7.5 8.2 0 16.4 1.2 24.4 3.6 8.1 2.4 15.3 5.8 21.7 10.4 6.4 4.6 11.5 10.3 15.5 17.2 4 6.9 6 15 6 24.1 0 12.1-3.1 25-9.2 38.7-6.1 13.7-13.8 27.5-23 41.4-9.2 13.9-19.2 27.4-29.9 40.5-10.7 13.1-20.7 25.1-30.1 35.8-9.3 10.8-17.2 19.9-23.5 27.4-6.4 7.5-9.7 12.6-9.9 15.3 0 3.6 1.1 6.4 3.3 8.6s6 3.3 11.2 3.3c4.2 0 10.5-2.4 18.7-7.1 8.2-4.7 19.7-12.9 34.5-24.5 14.8-11.7 33.6-27.3 56.4-46.9 23.2-19.7 51.3-44.4 84.6-74.2z"/></symbol></svg>